<svg width="484" height="484" viewBox="0 0 484 484" fill="none" xmlns="http://www.w3.org/2000/svg">
<path d="M355.438 226.875C409.734 226.875 453.75 182.859 453.75 128.562C453.75 74.266 409.734 30.25 355.438 30.25C301.141 30.25 257.125 74.266 257.125 128.562C257.125 182.859 301.141 226.875 355.438 226.875Z" fill="#A3CEF1"/>
<path d="M355.438 196.625C393.027 196.625 423.5 166.152 423.5 128.562C423.5 90.9726 393.027 60.5 355.438 60.5C317.848 60.5 287.375 90.9726 287.375 128.562C287.375 166.152 317.848 196.625 355.438 196.625Z" fill="#FFBC0A"/>
<path d="M201.011 287.678L178.324 297.433C170.686 300.685 162.064 300.685 154.502 297.433L131.814 287.678C120.697 282.913 113.513 271.948 113.513 259.848V219.312C113.513 194.281 133.856 173.938 158.888 173.938H174.013C199.045 173.938 219.388 194.281 219.388 219.312V259.848C219.388 271.948 212.204 282.913 201.087 287.678H201.011Z" fill="#DDA15E"/>
<path d="M265.746 332.75C251.982 318.759 232.849 310.062 211.75 310.062H189.062C189.062 322.616 178.929 332.75 166.375 332.75C153.821 332.75 143.688 322.616 143.688 310.062H121C79.255 310.062 45.375 343.943 45.375 385.688V438.625H211.75L242 332.75H265.746Z" fill="#274C77"/>
<path d="M128.562 408.375H143.688C152.006 408.375 158.812 415.181 158.812 423.5V438.625H128.562V408.375Z" fill="#DDA15E"/>
<path d="M90.75 232.396C88.5569 233.681 85.91 234.438 83.1875 234.438C74.8687 234.438 68.0625 227.631 68.0625 219.312C68.0625 210.994 74.8687 204.188 83.1875 204.188C86.3637 204.188 89.3131 205.171 91.8088 206.91" fill="#274C77"/>
<path d="M242 232.396C244.193 233.681 246.84 234.438 249.562 234.438C257.881 234.438 264.687 227.631 264.687 219.312C264.687 210.994 257.881 204.188 249.562 204.188C246.386 204.188 243.437 205.171 240.941 206.91" fill="#274C77"/>
<path d="M143.688 292.744L154.426 297.358C162.064 300.685 170.686 300.685 178.324 297.358L189.062 292.744V310.063C189.062 322.616 178.929 332.75 166.375 332.75C153.821 332.75 143.688 322.616 143.688 310.063V292.744Z" fill="#BC6C25"/>
<path d="M211.75 438.625L242 332.75H408.375L378.125 438.625" fill="#8B8C89"/>
<path d="M214.699 199.499C210.389 197.759 205.398 196.625 199.121 196.625C166.375 196.625 166.375 226.875 133.554 226.875C125.008 226.875 118.656 224.833 113.438 221.808V219.312C113.438 194.281 133.781 173.938 158.813 173.938H173.938C191.861 173.938 207.364 184.374 214.699 199.499Z" fill="#274C77"/>
<path d="M219.312 254.1V219.312C219.312 194.281 198.969 173.938 173.938 173.938H158.812C133.781 173.938 113.438 194.281 113.438 219.312V249.562H98.3125C94.1531 249.562 90.75 246.159 90.75 242V219.312C90.75 177.568 124.63 143.688 166.375 143.688C187.247 143.688 206.154 152.158 219.842 165.846C233.53 179.534 242 198.44 242 219.312V243.361C242 246.991 239.429 250.092 235.95 250.772L219.312 254.1Z" fill="#E7ECEF"/>
<path d="M310.062 378.125C314.222 378.125 317.625 381.528 317.625 385.688C317.625 389.847 314.222 393.25 310.062 393.25V378.125Z" fill="#A3CEF1"/>
<path d="M166.375 264.688C165.543 260.604 168.19 256.596 172.274 255.764L234.438 243.361V221.733C234.438 185.508 207.137 153.821 171.064 151.401C131.436 148.754 98.3125 180.214 98.3125 219.313V242H113.438V257.125H98.3125C89.9937 257.125 83.1875 250.319 83.1875 242V221.733C83.1875 178.475 115.253 140.511 158.359 136.503C207.818 131.814 249.562 170.761 249.562 219.313V243.361C249.562 250.546 244.496 256.747 237.387 258.184L175.223 270.586C171.139 271.418 167.131 268.771 166.299 264.688H166.375Z" fill="#6096BA"/>
<path d="M166.375 438.625H151.25V423.5C151.25 419.341 147.847 415.938 143.688 415.938H90.75C86.5906 415.938 83.1875 412.534 83.1875 408.375V378.125C83.1875 376.083 84.0194 374.193 85.3806 372.756L95.1362 363C98.0856 360.051 102.85 360.051 105.799 363C108.749 365.949 108.749 370.714 105.799 373.663L98.2369 381.226V400.813H143.612C156.166 400.813 166.299 410.946 166.299 423.5V438.625H166.375Z" fill="#6096BA"/>
<path d="M408.375 438.625H30.25V453.75H408.375V438.625Z" fill="#A3CEF1"/>
<path d="M355.438 121C351.278 121 347.875 117.597 347.875 113.438C347.875 109.278 351.278 105.875 355.438 105.875C359.597 105.875 363 109.278 363 113.438H378.125C378.125 103.606 371.772 95.2875 363 92.1113V83.1875H347.875V92.1113C339.103 95.2119 332.75 103.531 332.75 113.438C332.75 125.916 342.959 136.125 355.438 136.125C359.597 136.125 363 139.528 363 143.688C363 147.847 359.597 151.25 355.438 151.25C351.278 151.25 347.875 147.847 347.875 143.688H332.75C332.75 153.519 339.103 161.837 347.875 165.014V173.938H363V165.014C371.772 161.913 378.125 153.594 378.125 143.688C378.125 131.209 367.916 121 355.438 121Z" fill="#6096BA"/>
<path d="M332.901 224.304C332.826 225.136 332.75 226.043 332.75 226.875C332.75 239.429 342.884 249.562 355.438 249.562C367.991 249.562 378.125 239.429 378.125 226.875C378.125 226.043 378.049 225.136 377.974 224.304C370.714 225.967 363.227 226.875 355.438 226.875C347.648 226.875 340.161 225.967 332.901 224.304Z" fill="#6096BA"/>
<path d="M325.188 287.375C333.541 287.375 340.312 280.603 340.312 272.25C340.312 263.897 333.541 257.125 325.188 257.125C316.834 257.125 310.062 263.897 310.062 272.25C310.062 280.603 316.834 287.375 325.188 287.375Z" fill="#6096BA"/>
<path d="M287.375 317.625C295.728 317.625 302.5 310.853 302.5 302.5C302.5 294.147 295.728 287.375 287.375 287.375C279.022 287.375 272.25 294.147 272.25 302.5C272.25 310.853 279.022 317.625 287.375 317.625Z" fill="#6096BA"/>
</svg>
